<mxfile host="app.diagrams.net" modified="2024-02-19T18:03:32.509Z" agent="Mozilla/5.0 (Macintosh; Intel Mac OS X 10_15_7) AppleWebKit/537.36 (KHTML, like Gecko) Chrome/121.0.0.0 Safari/537.36" etag="uu0IuZShvc31SbpBihbM" version="23.1.5" type="github">
  <diagram name="Page-1" id="ig6-tObmL__4JNBYHE8E">
    <mxGraphModel dx="989" dy="525" grid="1" gridSize="10" guides="1" tooltips="1" connect="1" arrows="1" fold="1" page="1" pageScale="1" pageWidth="827" pageHeight="1169" math="0" shadow="0">
      <root>
        <mxCell id="0" />
        <mxCell id="1" parent="0" />
        <mxCell id="S9rmqXfoAt6bCXeC25mA-1" value="&lt;h1&gt;COMP SOFTWARE ROADMAP&lt;/h1&gt;&lt;div&gt;&lt;ul&gt;&lt;li&gt;Specify goals, modules and functionality in docs&lt;/li&gt;&lt;li&gt;Create initial database model with entities and relations&lt;/li&gt;&lt;li&gt;write tickets for further features&lt;/li&gt;&lt;/ul&gt;&lt;/div&gt;" style="text;html=1;spacing=5;spacingTop=-20;whiteSpace=wrap;overflow=hidden;rounded=0;" vertex="1" parent="1">
          <mxGeometry x="39" y="40" width="750" height="460" as="geometry" />
        </mxCell>
      </root>
    </mxGraphModel>
  </diagram>
</mxfile>
